<?xml version="1.0" standalone="no"?>
<!DOCTYPE svg PUBLIC "-//W3C//DTD SVG 20010904//EN"
 "http://www.w3.org/TR/2001/REC-SVG-20010904/DTD/svg10.dtd">
<svg version="1.0" xmlns="http://www.w3.org/2000/svg"
 width="720.000000pt" height="720.000000pt" viewBox="0 0 720.000000 720.000000"
 preserveAspectRatio="xMidYMid meet">

<g transform="translate(0.000000,720.000000) scale(0.100000,-0.100000)"
fill="#000000" stroke="none">
<path d="M2135 4945 c-14 -13 -25 -29 -25 -35 0 -7 -114 -10 -353 -10 -281 0
-357 -3 -372 -13 -42 -31 -1 -44 275 -83 240 -34 270 -34 365 1 55 20 80 25
83 17 9 -29 35 -42 83 -42 40 0 55 5 75 25 l25 25 57 -17 c75 -23 179 -21 410
6 204 24 235 32 230 59 -3 16 -29 17 -356 20 -234 1 -352 6 -352 13 0 5 -11
21 -25 34 -33 34 -87 34 -120 0z"/>
<path d="M4945 4945 c-14 -13 -25 -29 -25 -35 0 -7 -110 -10 -339 -10 -187 0
-346 -3 -355 -6 -28 -11 -17 -33 22 -43 48 -13 151 -26 340 -46 161 -17 230
-12 292 20 29 15 31 15 39 -8 11 -29 29 -37 85 -37 44 0 86 22 86 44 0 10 21
5 78 -17 62 -24 91 -30 147 -29 84 1 467 57 495 72 24 13 26 36 4 44 -9 3
-175 6 -370 6 -195 0 -354 4 -354 9 0 4 -12 20 -26 35 -35 35 -86 35 -119 1z"/>
<path d="M2080 4742 c-29 -6 -36 -12 -38 -34 l-3 -28 155 0 156 0 0 24 c0 14
-4 27 -8 30 -14 8 -226 15 -262 8z"/>
<path d="M4893 4743 c-40 -4 -43 -6 -43 -34 l0 -29 155 0 155 0 0 24 c0 14 -3
27 -8 30 -11 7 -211 14 -259 9z"/>
<path d="M3305 4638 c-65 -24 -134 -79 -186 -147 l-26 -35 -159 23 c-87 13
-244 37 -349 55 -184 31 -190 32 -193 56 -7 48 -14 50 -197 50 -126 0 -175 -3
-183 -12 -15 -19 -25 -123 -17 -181 5 -36 15 -59 35 -79 28 -28 29 -28 166
-28 115 0 140 3 156 17 18 16 23 15 88 -5 151 -49 474 -170 478 -180 1 -5 -15
-31 -36 -58 -89 -114 -222 -326 -222 -356 0 -28 79 -137 160 -222 l81 -84 -24
-49 c-60 -119 -113 -321 -124 -473 -6 -88 -6 -89 19 -101 46 -20 65 0 73 78
11 114 80 295 153 405 24 37 26 38 46 23 51 -38 168 -87 230 -96 40 -7 190 -9
374 -7 342 4 349 6 472 83 l55 34 17 -22 c27 -34 103 -185 127 -252 12 -33 27
-100 34 -149 14 -96 27 -113 75 -95 20 7 22 15 22 71 0 130 -61 372 -126 501
l-26 52 25 20 c37 30 165 183 194 233 25 42 25 43 8 88 -20 53 -157 261 -216
328 -23 26 -39 49 -36 52 3 3 122 47 264 99 142 51 265 96 274 99 9 4 23 -1
34 -14 17 -18 30 -20 157 -20 l140 0 29 29 c29 29 29 31 29 139 0 81 -4 113
-14 121 -9 8 -69 11 -192 9 l-179 -3 -5 -35 -5 -35 -200 -33 c-110 -18 -266
-43 -347 -55 l-146 -23 -59 65 c-40 44 -81 77 -123 99 l-63 32 -266 -1 c-163
0 -278 -5 -296 -11z m650 -141 c3 -39 5 -143 3 -230 -3 -155 -3 -158 -23 -143
-18 13 -20 29 -23 253 -3 237 -3 238 17 215 13 -15 21 -44 26 -95z m-712 -374
c-9 -7 -21 -13 -26 -13 -7 0 -7 80 -3 218 6 179 10 221 24 242 16 24 17 15 20
-205 2 -207 1 -231 -15 -242z m694 -147 c162 -35 308 -95 285 -118 -10 -10
-113 5 -187 27 -20 6 -20 1 -20 -198 0 -200 0 -204 -25 -240 -13 -20 -43 -46
-65 -59 -39 -23 -46 -23 -325 -23 -320 0 -334 3 -388 73 l-27 35 -3 210 c-3
191 -5 208 -20 202 -9 -3 -44 -13 -77 -21 -209 -49 -105 40 112 96 105 28 115
28 390 29 209 1 299 -3 350 -13z"/>
<path d="M3355 3921 c-58 -8 -90 -24 -105 -51 -6 -10 -10 -91 -10 -185 0 -263
-11 -255 357 -255 251 0 270 1 301 20 52 32 62 69 62 233 0 79 -5 157 -10 174
-6 16 -25 38 -43 49 -29 17 -53 19 -267 21 -129 0 -257 -2 -285 -6z m288 -82
c81 -22 146 -115 132 -188 -14 -72 -42 -111 -102 -138 -60 -28 -95 -27 -158 3
-112 53 -122 231 -17 296 58 36 91 42 145 27z"/>
<path d="M3526 3769 c-63 -49 -71 -127 -19 -181 41 -43 93 -53 147 -30 36 16
47 28 61 65 21 56 9 103 -36 142 -40 33 -114 35 -153 4z"/>
<path d="M6797 4304 c-41 -63 -159 -186 -230 -240 -71 -54 -179 -106 -252
-123 -73 -17 -851 -134 -1600 -241 l-130 -18 -30 -38 c-16 -21 -50 -60 -74
-86 -24 -26 -40 -48 -36 -48 33 0 1633 281 1830 321 140 29 242 80 339 170 80
75 172 203 201 281 24 64 16 74 -18 22z"/>
<path d="M370 4320 c0 -22 44 -113 81 -168 112 -163 258 -270 428 -313 99 -24
959 -176 1850 -325 l33 -5 -58 67 c-101 115 -94 110 -165 118 -60 7 -594 82
-989 141 -96 14 -238 35 -315 46 -264 39 -366 59 -433 85 -137 55 -295 186
-409 339 -14 18 -22 24 -23 15z"/>
<path d="M5298 4073 c-37 -42 -30 -92 15 -113 l22 -11 -22 17 c-22 16 -33 42
-13 29 5 -3 5 7 -2 25 -8 26 -7 34 7 50 10 11 16 20 13 20 -3 0 -12 -8 -20
-17z"/>
<path d="M5425 4070 c10 -11 20 -20 23 -20 3 0 -3 9 -13 20 -10 11 -20 20 -23
20 -3 0 3 -9 13 -20z"/>
<path d="M1901 4065 c9 -11 19 -27 22 -35 5 -13 6 -13 6 1 1 9 -9 24 -21 35
-23 19 -23 19 -7 -1z"/>
<path d="M1755 4049 c-4 -6 -5 -12 -2 -15 2 -3 7 2 10 11 7 17 1 20 -8 4z"/>
<path d="M1895 4015 c0 -18 3 -31 8 -28 4 2 7 15 7 28 0 13 -3 26 -7 28 -5 3
-8 -10 -8 -28z"/>
<path d="M5451 4024 c0 -11 3 -14 6 -6 3 7 2 16 -1 19 -3 4 -6 -2 -5 -13z"/>
<path d="M1751 3999 c-1 -9 7 -23 17 -30 15 -12 16 -12 6 1 -6 8 -14 22 -17
30 -5 13 -6 12 -6 -1z"/>
<path d="M5353 3943 c9 -2 23 -2 30 0 6 3 -1 5 -18 5 -16 0 -22 -2 -12 -5z"/>
<path d="M5028 3543 c7 -3 16 -2 19 1 4 3 -2 6 -13 5 -11 0 -14 -3 -6 -6z"/>
<path d="M5095 3530 c17 -4 41 -8 55 -8 22 0 22 1 -5 8 -16 4 -41 8 -55 8 -22
0 -22 -1 5 -8z"/>
<path d="M5218 3533 c6 -2 18 -2 25 0 6 3 1 5 -13 5 -14 0 -19 -2 -12 -5z"/>
<path d="M5360 3504 c132 -30 232 -63 225 -74 -3 -5 -21 -2 -41 6 -41 17 -258
70 -324 78 -25 3 14 -9 85 -28 129 -33 219 -70 244 -100 36 -43 -19 -69 -351
-172 -275 -85 -371 -127 -418 -180 -28 -32 -31 -43 -27 -77 7 -52 44 -89 184
-182 135 -91 173 -133 173 -190 0 -75 -75 -162 -212 -247 -27 -16 -48 -31 -48
-32 0 -3 420 0 430 3 3 0 23 23 44 51 30 40 44 50 67 50 37 0 37 -16 -1 -60
-16 -19 -29 -38 -30 -41 0 -3 90 -5 199 -5 l200 1 10 42 c27 107 0 231 -67
305 -66 73 -158 125 -382 217 -145 59 -200 93 -200 121 0 34 71 74 263 151
346 138 423 188 380 248 -31 44 -143 83 -357 121 -149 27 -174 24 -46 -6z
m305 -127 c0 -9 -4 -16 -10 -14 -5 1 -9 5 -8 9 2 4 -8 15 -22 24 -37 24 -30
39 8 17 17 -11 32 -27 32 -36z m-5 -47 c0 -5 -13 -16 -30 -25 -33 -17 -38 -11
-13 17 17 19 43 24 43 8z m-100 -56 c0 -5 -63 -34 -75 -34 -16 0 -1 20 23 28
31 12 52 14 52 6z m-130 -52 c0 -8 -58 -32 -78 -32 -25 0 -11 20 21 29 42 12
57 13 57 3z m-150 -50 c0 -11 -78 -37 -86 -29 -8 7 46 36 69 37 9 0 17 -4 17
-8z m-130 -47 c0 -12 -64 -36 -78 -30 -14 6 -11 10 13 21 30 13 65 18 65 9z
m-145 -80 c-45 -37 -74 -32 -38 7 9 10 28 18 42 18 l26 0 -30 -25z m-24 -87
c23 -29 24 -38 2 -38 -20 0 -53 28 -53 47 0 21 30 15 51 -9z m119 -88 c44 -23
52 -40 17 -40 -20 0 -97 44 -97 55 0 12 44 3 80 -15z m162 -86 c48 -24 51 -27
33 -40 -16 -12 -24 -10 -67 14 -47 26 -63 52 -33 52 9 0 39 -12 67 -26z m147
-109 c35 -40 38 -53 15 -62 -17 -6 -107 74 -98 89 12 20 53 6 83 -27z m46
-155 c0 -55 0 -55 -32 -58 l-33 -3 6 48 c8 69 11 75 36 71 21 -3 23 -9 23 -58z"/>
<path d="M3561 2101 c-38 -38 6 -95 54 -73 32 15 41 49 19 73 -22 24 -49 24
-73 0z"/>
<path d="M2226 2090 c-87 -44 -130 -114 -129 -213 1 -83 34 -143 101 -183 167
-101 372 4 372 191 0 54 -33 138 -66 167 -65 58 -201 76 -278 38z m181 -70
c51 -31 67 -63 66 -135 -1 -81 -26 -126 -85 -150 -105 -42 -198 28 -198 150 0
55 18 93 60 129 40 33 109 36 157 6z"/>
<path d="M3852 2083 c-8 -22 -73 -179 -169 -410 -4 -9 8 -13 40 -13 44 0 45 1
65 50 l21 50 95 0 96 0 22 -47 c22 -45 25 -48 67 -51 53 -4 57 -25 -42 213
-106 257 -93 235 -143 235 -37 0 -43 -3 -52 -27z m118 -250 c0 -9 -21 -13 -71
-13 -39 0 -69 3 -67 8 4 10 59 154 65 172 5 14 72 -140 73 -167z"/>
<path d="M2978 1990 c-15 -4 -37 -15 -49 -23 -20 -15 -24 -14 -47 3 -32 26
-97 26 -139 1 -31 -19 -31 -19 -36 0 -5 17 -12 20 -44 17 l-38 -3 0 -153 c0
-85 3 -158 6 -164 3 -5 24 -8 45 -6 l39 3 -3 110 c-4 120 2 139 50 150 19 5
32 1 47 -14 19 -19 21 -33 21 -136 l0 -115 40 0 40 0 0 113 c0 122 6 141 52
152 19 5 32 1 47 -14 19 -19 21 -33 21 -137 l0 -115 41 3 41 3 -1 129 c-3 165
-11 183 -91 201 -8 2 -27 -1 -42 -5z"/>
<path d="M3180 1825 l0 -165 45 0 45 0 0 119 c0 87 4 122 13 130 24 19 71 23
92 7 18 -13 20 -28 23 -136 l4 -121 41 3 42 3 3 108 c3 133 -8 181 -48 202
-42 22 -112 19 -143 -5 -25 -20 -25 -20 -30 0 -4 16 -14 20 -46 20 l-41 0 0
-165z"/>
<path d="M3558 1983 c-2 -5 -2 -79 0 -165 l3 -158 40 0 39 0 0 165 0 165 -39
0 c-22 0 -41 -3 -43 -7z"/>
<path d="M4221 1973 c-37 -19 -76 -72 -86 -120 -13 -66 31 -146 102 -182 30
-15 107 -14 147 3 31 13 66 49 66 68 0 13 -43 8 -70 -7 -30 -17 -80 -19 -113
-4 -23 10 -47 46 -47 69 0 6 51 10 120 10 l120 0 0 38 c0 46 -30 96 -72 122
-41 25 -120 26 -167 3z m136 -65 c40 -38 30 -48 -47 -48 -38 0 -73 0 -77 1
-12 1 -3 32 14 52 23 24 81 22 110 -5z"/>
<path d="M4520 1824 l0 -165 43 3 42 3 3 107 c3 103 4 109 28 125 14 9 41 16
60 15 33 -1 34 0 34 38 0 39 -1 40 -35 40 -25 0 -44 -8 -61 -25 -14 -14 -27
-25 -29 -25 -3 0 -5 11 -5 25 0 23 -4 25 -40 25 l-40 0 0 -166z"/>
<path d="M4830 1968 c-50 -34 -72 -71 -78 -126 -9 -101 64 -182 165 -182 99 0
167 55 179 144 16 110 -55 186 -173 186 -46 0 -68 -5 -93 -22z m154 -69 c54
-64 20 -179 -53 -179 -59 0 -91 41 -91 116 0 89 89 128 144 63z"/>
<path d="M3697 1543 c-4 -3 -7 -17 -7 -29 0 -13 -7 -44 -16 -69 -22 -66 -12
-77 20 -22 26 44 31 47 68 47 l41 0 -6 -35 c-4 -25 -2 -35 7 -35 16 0 36 42
36 75 0 24 -3 25 -55 25 -52 0 -55 1 -55 25 0 24 -18 34 -33 18z"/>
<path d="M4050 1475 l0 -75 -75 0 c-60 0 -75 -3 -75 -15 0 -11 12 -15 50 -15
28 0 50 -4 50 -8 0 -14 -57 -96 -84 -121 -31 -29 -33 -41 -6 -34 30 8 86 68
106 113 10 22 21 40 26 40 4 0 8 -43 8 -95 0 -88 1 -95 20 -95 19 0 20 7 20
100 0 55 3 100 8 100 4 -1 17 -23 30 -50 24 -51 90 -110 124 -110 26 0 22 15
-8 35 -31 20 -114 105 -114 117 0 4 27 8 60 8 47 0 60 3 60 15 0 12 -16 15
-80 15 l-80 0 0 75 c0 68 -2 75 -20 75 -18 0 -20 -7 -20 -75z"/>
<path d="M4820 1475 c0 -41 2 -75 4 -75 29 0 36 16 36 81 0 62 -2 69 -20 69
-18 0 -20 -7 -20 -75z"/>
<path d="M4906 1493 c-15 -31 -25 -58 -22 -60 2 -2 16 10 32 26 22 24 34 29
56 24 45 -9 118 6 118 24 0 14 -10 15 -65 10 -60 -6 -65 -5 -65 13 0 39 -29
19 -54 -37z"/>
<path d="M4740 1470 c0 -63 2 -70 20 -70 18 0 20 7 20 70 0 63 -2 70 -20 70
-18 0 -20 -7 -20 -70z"/>
<path d="M2100 1527 c0 -4 83 -204 124 -299 17 -39 36 -48 54 -25 12 14 132
305 132 319 0 5 -10 8 -21 6 -18 -2 -31 -28 -73 -135 -28 -73 -54 -133 -58
-133 -4 0 -10 11 -14 25 -3 14 -25 74 -48 133 -38 96 -45 107 -69 110 -15 2
-27 1 -27 -1z"/>
<path d="M2454 1515 c-9 -23 4 -47 23 -43 11 2 19 14 21 31 3 22 -1 27 -18 27
-11 0 -23 -7 -26 -15z"/>
<path d="M2797 1517 c-8 -22 17 -51 37 -44 25 10 17 51 -10 55 -12 2 -24 -3
-27 -11z"/>
<path d="M3470 1365 l0 -165 90 0 c73 0 90 3 90 15 0 12 -14 15 -64 15 -42 0
-65 4 -68 13 -3 6 -3 67 0 134 l4 122 71 3 c45 2 72 7 75 16 3 9 -21 12 -97
12 l-101 0 0 -165z"/>
<path d="M4182 1518 c-7 -7 -12 -17 -12 -22 0 -6 -9 -22 -20 -36 -23 -30 -25
-40 -6 -40 18 0 76 72 76 94 0 19 -21 21 -38 4z"/>
<path d="M4322 1518 c3 -8 29 -14 71 -16 l67 -3 0 -49 0 -50 -75 0 c-60 0 -75
-3 -75 -15 0 -12 14 -15 70 -15 39 0 70 -2 70 -5 0 -37 -79 -131 -135 -163
-26 -14 -13 -26 19 -18 41 10 108 69 130 113 24 48 32 52 40 20 11 -45 117
-137 159 -137 28 0 20 26 -13 40 -30 13 -109 90 -129 128 -12 22 -11 22 69 22
64 0 80 3 80 15 0 12 -15 15 -78 15 -43 0 -81 2 -83 4 -2 3 -3 25 -1 50 l4 46
69 0 c55 0 69 3 69 15 0 13 -25 15 -166 15 -128 0 -165 -3 -162 -12z"/>
<path d="M3920 1512 c0 -14 59 -92 69 -92 23 0 21 24 -3 61 -16 23 -34 39 -46
39 -11 0 -20 -4 -20 -8z"/>
<path d="M3540 1456 c0 -9 9 -34 19 -55 l20 -38 -24 -51 c-26 -56 -19 -67 18
-27 l23 25 22 -25 c35 -40 46 -20 17 30 l-26 43 21 51 c24 63 24 61 1 61 -13
0 -21 -9 -26 -30 -8 -34 -21 -39 -30 -11 -3 11 -12 25 -20 31 -12 10 -15 9
-15 -4z"/>
<path d="M4970 1463 c0 -10 52 -63 62 -63 16 0 8 27 -15 48 -23 21 -47 29 -47
15z"/>
<path d="M2450 1315 c0 -125 0 -126 23 -123 21 3 22 6 22 123 0 117 -1 120
-22 123 -23 3 -23 2 -23 -123z"/>
<path d="M2582 1423 c-52 -45 -30 -92 57 -121 65 -22 85 -46 57 -68 -28 -20
-70 -17 -91 6 -22 25 -60 28 -51 4 3 -9 6 -17 6 -20 0 -12 65 -34 100 -34 72
0 117 72 72 113 -10 10 -39 24 -65 33 -51 17 -72 36 -63 59 7 20 70 20 86 0
18 -21 52 -20 48 2 -8 41 -118 59 -156 26z"/>
<path d="M2800 1315 c0 -125 0 -126 23 -123 21 3 22 6 22 123 0 117 -1 120
-22 123 -23 3 -23 2 -23 -123z"/>
<path d="M2939 1412 c-61 -55 -45 -178 27 -208 95 -40 178 17 178 120 0 43 -4
52 -37 82 -31 29 -44 34 -87 34 -40 0 -56 -5 -81 -28z m126 -27 c19 -18 25
-35 25 -70 0 -35 -6 -52 -25 -70 -30 -31 -56 -32 -90 -2 -22 18 -27 32 -27 70
-2 84 65 125 117 72z"/>
<path d="M3192 1318 c3 -119 4 -123 26 -126 21 -3 22 -1 22 92 0 87 2 96 22
110 30 21 54 20 78 -4 17 -17 20 -33 20 -111 0 -88 1 -90 23 -87 21 3 22 7 22
106 0 97 -2 105 -24 123 -26 21 -81 25 -114 8 -16 -9 -22 -9 -25 0 -2 6 -15
11 -28 11 l-25 0 3 -122z"/>
<path d="M3727 1433 c-4 -3 -7 -25 -7 -48 0 -61 -23 -129 -60 -175 -17 -22
-27 -40 -21 -40 20 0 89 70 95 96 7 26 7 26 35 -19 30 -47 74 -84 79 -67 2 5
-8 24 -21 42 -45 60 -67 115 -67 168 0 35 -4 50 -13 50 -8 0 -17 -3 -20 -7z"/>
<path d="M4840 1394 c-19 -13 -54 -31 -77 -40 -51 -20 -58 -39 -10 -28 34 8
104 7 119 -2 4 -3 8 -12 8 -20 0 -12 -10 -15 -37 -13 -62 3 -93 0 -93 -11 0
-6 28 -10 65 -10 l65 0 0 -30 c0 -38 -32 -41 -48 -5 -6 14 -19 25 -28 25 -12
0 -15 -6 -10 -25 6 -24 4 -25 -34 -25 -29 0 -40 -4 -40 -15 0 -13 25 -15 187
-13 138 2 187 6 191 16 2 8 -10 12 -42 12 -44 0 -46 1 -40 25 4 18 2 25 -8 25
-8 0 -20 -11 -26 -25 -7 -15 -20 -25 -32 -25 -16 0 -20 7 -20 30 l0 30 65 0
c37 0 65 4 65 10 0 6 -28 10 -65 10 -57 0 -65 2 -65 19 0 15 10 19 46 24 25 2
62 0 81 -5 27 -7 38 -7 44 3 5 9 -11 19 -62 35 -38 12 -80 29 -94 38 -34 22
-64 19 -105 -10z m100 -19 c17 -9 30 -18 30 -20 0 -3 -25 -5 -55 -5 -30 0 -55
4 -55 8 0 7 32 28 48 31 2 1 16 -6 32 -14z"/>
</g>
</svg>
